<svg width="14" height="14" viewBox="0 0 66 66" version="1.1" xmlns="http://www.w3.org/2000/svg">
<g id="#4cd62bff">
<path fill="#4cd62b" opacity="1.00" d=" M 31.33 0.00 L 34.29 0.00 C 50.87 0.34 65.40 14.75 66.00 31.30 L 66.00 33.87 C 65.91 50.65 51.32 65.48 34.58 66.00 L 31.65 66.00 C 15.04 65.61 0.47 51.12 0.00 34.51 L 0.00 32.17 C 0.07 15.40 14.62 0.59 31.33 0.00 M 51.52 16.82 C 43.03 25.44 34.47 33.98 25.95 42.56 C 22.12 38.64 18.22 34.78 14.31 30.92 C 13.17 31.37 12.05 31.85 10.93 32.34 C 10.96 33.06 11.02 34.51 11.05 35.23 C 15.25 39.54 19.52 43.77 23.76 48.04 C 24.82 49.43 27.10 49.36 28.17 48.02 C 37.17 39.05 46.07 29.98 55.08 21.02 C 55.51 18.58 54.05 16.65 51.52 16.82 Z" />
</g>
<g id="#fdfdfdff">
<path fill="#fdfdfd" opacity="1.00" d=" M 51.52 16.82 C 54.05 16.65 55.51 18.58 55.08 21.02 C 46.07 29.98 37.17 39.05 28.17 48.02 C 27.10 49.36 24.82 49.43 23.76 48.04 C 19.52 43.77 15.25 39.54 11.05 35.23 C 11.02 34.51 10.96 33.06 10.93 32.34 C 12.05 31.85 13.17 31.37 14.31 30.92 C 18.22 34.78 22.12 38.64 25.95 42.56 C 34.47 33.98 43.03 25.44 51.52 16.82 Z" />
</g>
</svg>
